<mxfile host="app.diagrams.net" modified="2023-12-05T02:07:39.331Z" agent="Mozilla/5.0 (Windows NT 10.0; Win64; x64) AppleWebKit/537.36 (KHTML, like Gecko) Chrome/119.0.0.0 Safari/537.36" etag="Iv7h9c50JonlCQPCESGs" version="22.1.5" type="github">
  <diagram name="Halaman-1" id="0ZCGiu-J6l2-USiNijsk">
    <mxGraphModel dx="2344" dy="2024" grid="1" gridSize="10" guides="1" tooltips="1" connect="1" arrows="1" fold="1" page="1" pageScale="1" pageWidth="827" pageHeight="1169" math="0" shadow="0">
      <root>
        <mxCell id="0" />
        <mxCell id="1" parent="0" />
        <mxCell id="JBl0szbcd0s3QsTV0i9P-39" style="edgeStyle=orthogonalEdgeStyle;rounded=0;orthogonalLoop=1;jettySize=auto;html=1;entryX=0.5;entryY=0;entryDx=0;entryDy=0;endArrow=none;endFill=0;" parent="1" source="JBl0szbcd0s3QsTV0i9P-1" target="JBl0szbcd0s3QsTV0i9P-38" edge="1">
          <mxGeometry relative="1" as="geometry" />
        </mxCell>
        <mxCell id="JBl0szbcd0s3QsTV0i9P-1" value="Anggota" style="rounded=0;whiteSpace=wrap;html=1;" parent="1" vertex="1">
          <mxGeometry x="-20" y="150" width="120" height="60" as="geometry" />
        </mxCell>
        <mxCell id="JBl0szbcd0s3QsTV0i9P-2" value="Librarian" style="rounded=0;whiteSpace=wrap;html=1;" parent="1" vertex="1">
          <mxGeometry x="130" y="563" width="120" height="60" as="geometry" />
        </mxCell>
        <mxCell id="JBl0szbcd0s3QsTV0i9P-42" style="edgeStyle=orthogonalEdgeStyle;rounded=0;orthogonalLoop=1;jettySize=auto;html=1;endArrow=none;endFill=0;" parent="1" source="JBl0szbcd0s3QsTV0i9P-3" target="JBl0szbcd0s3QsTV0i9P-41" edge="1">
          <mxGeometry relative="1" as="geometry" />
        </mxCell>
        <mxCell id="JBl0szbcd0s3QsTV0i9P-3" value="Book" style="rounded=0;whiteSpace=wrap;html=1;" parent="1" vertex="1">
          <mxGeometry x="790" y="-10" width="120" height="60" as="geometry" />
        </mxCell>
        <mxCell id="JBl0szbcd0s3QsTV0i9P-4" value="Category" style="rounded=0;whiteSpace=wrap;html=1;" parent="1" vertex="1">
          <mxGeometry x="405" y="-91.25" width="120" height="60" as="geometry" />
        </mxCell>
        <mxCell id="JBl0szbcd0s3QsTV0i9P-70" style="edgeStyle=orthogonalEdgeStyle;rounded=0;orthogonalLoop=1;jettySize=auto;html=1;entryX=0;entryY=0.5;entryDx=0;entryDy=0;endArrow=none;endFill=0;" parent="1" source="JBl0szbcd0s3QsTV0i9P-5" target="JBl0szbcd0s3QsTV0i9P-6" edge="1">
          <mxGeometry relative="1" as="geometry" />
        </mxCell>
        <mxCell id="JBl0szbcd0s3QsTV0i9P-5" value="Transaksi" style="rounded=0;whiteSpace=wrap;html=1;" parent="1" vertex="1">
          <mxGeometry x="435.25" y="770" width="120" height="60" as="geometry" />
        </mxCell>
        <mxCell id="JBl0szbcd0s3QsTV0i9P-6" value="Penalty" style="rounded=0;whiteSpace=wrap;html=1;" parent="1" vertex="1">
          <mxGeometry x="755" y="770" width="120" height="60" as="geometry" />
        </mxCell>
        <mxCell id="JBl0szbcd0s3QsTV0i9P-45" style="edgeStyle=orthogonalEdgeStyle;rounded=0;orthogonalLoop=1;jettySize=auto;html=1;entryX=0.5;entryY=0;entryDx=0;entryDy=0;endArrow=none;endFill=0;" parent="1" source="JBl0szbcd0s3QsTV0i9P-7" target="JBl0szbcd0s3QsTV0i9P-44" edge="1">
          <mxGeometry relative="1" as="geometry" />
        </mxCell>
        <mxCell id="JBl0szbcd0s3QsTV0i9P-7" value="LibraryService" style="rounded=0;whiteSpace=wrap;html=1;" parent="1" vertex="1">
          <mxGeometry x="450" y="400" width="120" height="60" as="geometry" />
        </mxCell>
        <mxCell id="JBl0szbcd0s3QsTV0i9P-8" value="BookChart&amp;nbsp;" style="rounded=0;whiteSpace=wrap;html=1;" parent="1" vertex="1">
          <mxGeometry x="405" y="-8" width="120" height="60" as="geometry" />
        </mxCell>
        <mxCell id="JBl0szbcd0s3QsTV0i9P-23" style="rounded=0;orthogonalLoop=1;jettySize=auto;html=1;entryX=0.5;entryY=0;entryDx=0;entryDy=0;endArrow=none;endFill=0;" parent="1" source="JBl0szbcd0s3QsTV0i9P-9" target="JBl0szbcd0s3QsTV0i9P-1" edge="1">
          <mxGeometry relative="1" as="geometry" />
        </mxCell>
        <mxCell id="JBl0szbcd0s3QsTV0i9P-9" value="id" style="ellipse;whiteSpace=wrap;html=1;aspect=fixed;" parent="1" vertex="1">
          <mxGeometry x="-120" y="60" width="60" height="60" as="geometry" />
        </mxCell>
        <mxCell id="JBl0szbcd0s3QsTV0i9P-25" style="rounded=0;orthogonalLoop=1;jettySize=auto;html=1;entryX=0.5;entryY=0;entryDx=0;entryDy=0;endArrow=none;endFill=0;" parent="1" source="JBl0szbcd0s3QsTV0i9P-10" target="JBl0szbcd0s3QsTV0i9P-1" edge="1">
          <mxGeometry relative="1" as="geometry" />
        </mxCell>
        <mxCell id="JBl0szbcd0s3QsTV0i9P-10" value="nama" style="ellipse;whiteSpace=wrap;html=1;aspect=fixed;" parent="1" vertex="1">
          <mxGeometry x="-70" y="15" width="60" height="60" as="geometry" />
        </mxCell>
        <mxCell id="JBl0szbcd0s3QsTV0i9P-26" style="rounded=0;orthogonalLoop=1;jettySize=auto;html=1;entryX=0.5;entryY=0;entryDx=0;entryDy=0;endArrow=none;endFill=0;" parent="1" source="JBl0szbcd0s3QsTV0i9P-11" target="JBl0szbcd0s3QsTV0i9P-1" edge="1">
          <mxGeometry relative="1" as="geometry" />
        </mxCell>
        <mxCell id="JBl0szbcd0s3QsTV0i9P-11" value="nik" style="ellipse;whiteSpace=wrap;html=1;aspect=fixed;" parent="1" vertex="1">
          <mxGeometry x="13" y="15" width="60" height="60" as="geometry" />
        </mxCell>
        <mxCell id="JBl0szbcd0s3QsTV0i9P-27" style="rounded=0;orthogonalLoop=1;jettySize=auto;html=1;endArrow=none;endFill=0;entryX=0.5;entryY=0;entryDx=0;entryDy=0;" parent="1" source="JBl0szbcd0s3QsTV0i9P-12" target="JBl0szbcd0s3QsTV0i9P-1" edge="1">
          <mxGeometry relative="1" as="geometry" />
        </mxCell>
        <mxCell id="JBl0szbcd0s3QsTV0i9P-12" value="email" style="ellipse;whiteSpace=wrap;html=1;aspect=fixed;" parent="1" vertex="1">
          <mxGeometry x="90" y="50" width="60" height="60" as="geometry" />
        </mxCell>
        <mxCell id="JBl0szbcd0s3QsTV0i9P-28" style="rounded=0;orthogonalLoop=1;jettySize=auto;html=1;entryX=0.5;entryY=1;entryDx=0;entryDy=0;endArrow=none;endFill=0;" parent="1" source="JBl0szbcd0s3QsTV0i9P-13" target="JBl0szbcd0s3QsTV0i9P-1" edge="1">
          <mxGeometry relative="1" as="geometry" />
        </mxCell>
        <mxCell id="JBl0szbcd0s3QsTV0i9P-13" value="gender" style="ellipse;whiteSpace=wrap;html=1;aspect=fixed;" parent="1" vertex="1">
          <mxGeometry x="70" y="220" width="60" height="60" as="geometry" />
        </mxCell>
        <mxCell id="JBl0szbcd0s3QsTV0i9P-30" style="rounded=0;orthogonalLoop=1;jettySize=auto;html=1;entryX=0.5;entryY=1;entryDx=0;entryDy=0;endArrow=none;endFill=0;" parent="1" source="JBl0szbcd0s3QsTV0i9P-14" target="JBl0szbcd0s3QsTV0i9P-1" edge="1">
          <mxGeometry relative="1" as="geometry" />
        </mxCell>
        <mxCell id="JBl0szbcd0s3QsTV0i9P-14" value="phone" style="ellipse;whiteSpace=wrap;html=1;aspect=fixed;" parent="1" vertex="1">
          <mxGeometry x="-90" y="193.75" width="60" height="60" as="geometry" />
        </mxCell>
        <mxCell id="JBl0szbcd0s3QsTV0i9P-29" style="rounded=0;orthogonalLoop=1;jettySize=auto;html=1;endArrow=none;endFill=0;entryX=0.5;entryY=1;entryDx=0;entryDy=0;" parent="1" source="JBl0szbcd0s3QsTV0i9P-15" target="JBl0szbcd0s3QsTV0i9P-1" edge="1">
          <mxGeometry relative="1" as="geometry" />
        </mxCell>
        <mxCell id="JBl0szbcd0s3QsTV0i9P-15" value="adress" style="ellipse;whiteSpace=wrap;html=1;aspect=fixed;" parent="1" vertex="1">
          <mxGeometry x="-40" y="243" width="60" height="60" as="geometry" />
        </mxCell>
        <mxCell id="JBl0szbcd0s3QsTV0i9P-35" style="rounded=0;orthogonalLoop=1;jettySize=auto;html=1;endArrow=none;endFill=0;" parent="1" source="JBl0szbcd0s3QsTV0i9P-16" target="JBl0szbcd0s3QsTV0i9P-2" edge="1">
          <mxGeometry relative="1" as="geometry" />
        </mxCell>
        <mxCell id="JBl0szbcd0s3QsTV0i9P-16" value="id" style="ellipse;whiteSpace=wrap;html=1;aspect=fixed;" parent="1" vertex="1">
          <mxGeometry x="140" y="690" width="60" height="60" as="geometry" />
        </mxCell>
        <mxCell id="JBl0szbcd0s3QsTV0i9P-17" value="nama" style="ellipse;whiteSpace=wrap;html=1;aspect=fixed;" parent="1" vertex="1">
          <mxGeometry x="30" y="570" width="60" height="60" as="geometry" />
        </mxCell>
        <mxCell id="JBl0szbcd0s3QsTV0i9P-32" style="rounded=0;orthogonalLoop=1;jettySize=auto;html=1;endArrow=none;endFill=0;entryX=0.5;entryY=1;entryDx=0;entryDy=0;" parent="1" source="JBl0szbcd0s3QsTV0i9P-18" target="JBl0szbcd0s3QsTV0i9P-2" edge="1">
          <mxGeometry relative="1" as="geometry" />
        </mxCell>
        <mxCell id="JBl0szbcd0s3QsTV0i9P-18" value="nik" style="ellipse;whiteSpace=wrap;html=1;aspect=fixed;" parent="1" vertex="1">
          <mxGeometry x="310" y="630" width="60" height="60" as="geometry" />
        </mxCell>
        <mxCell id="JBl0szbcd0s3QsTV0i9P-37" style="rounded=0;orthogonalLoop=1;jettySize=auto;html=1;endArrow=none;endFill=0;entryX=0.5;entryY=1;entryDx=0;entryDy=0;" parent="1" source="JBl0szbcd0s3QsTV0i9P-19" target="JBl0szbcd0s3QsTV0i9P-2" edge="1">
          <mxGeometry relative="1" as="geometry" />
        </mxCell>
        <mxCell id="JBl0szbcd0s3QsTV0i9P-19" value="email" style="ellipse;whiteSpace=wrap;html=1;aspect=fixed;" parent="1" vertex="1">
          <mxGeometry x="260" y="670" width="60" height="60" as="geometry" />
        </mxCell>
        <mxCell id="JBl0szbcd0s3QsTV0i9P-36" style="rounded=0;orthogonalLoop=1;jettySize=auto;html=1;entryX=0.5;entryY=1;entryDx=0;entryDy=0;endArrow=none;endFill=0;" parent="1" target="JBl0szbcd0s3QsTV0i9P-2" edge="1">
          <mxGeometry relative="1" as="geometry">
            <mxPoint x="228.23704677997944" y="712.4023020607215" as="sourcePoint" />
          </mxGeometry>
        </mxCell>
        <mxCell id="JBl0szbcd0s3QsTV0i9P-20" value="gender" style="ellipse;whiteSpace=wrap;html=1;aspect=fixed;" parent="1" vertex="1">
          <mxGeometry x="200" y="690" width="60" height="60" as="geometry" />
        </mxCell>
        <mxCell id="JBl0szbcd0s3QsTV0i9P-33" style="rounded=0;orthogonalLoop=1;jettySize=auto;html=1;entryX=0.5;entryY=1;entryDx=0;entryDy=0;endArrow=none;endFill=0;" parent="1" source="JBl0szbcd0s3QsTV0i9P-21" target="JBl0szbcd0s3QsTV0i9P-2" edge="1">
          <mxGeometry relative="1" as="geometry" />
        </mxCell>
        <mxCell id="JBl0szbcd0s3QsTV0i9P-21" value="phone" style="ellipse;whiteSpace=wrap;html=1;aspect=fixed;" parent="1" vertex="1">
          <mxGeometry x="50" y="630" width="60" height="60" as="geometry" />
        </mxCell>
        <mxCell id="JBl0szbcd0s3QsTV0i9P-34" style="rounded=0;orthogonalLoop=1;jettySize=auto;html=1;endArrow=none;endFill=0;entryX=0.5;entryY=1;entryDx=0;entryDy=0;" parent="1" source="JBl0szbcd0s3QsTV0i9P-22" target="JBl0szbcd0s3QsTV0i9P-2" edge="1">
          <mxGeometry relative="1" as="geometry">
            <mxPoint x="196.5" y="620" as="targetPoint" />
          </mxGeometry>
        </mxCell>
        <mxCell id="JBl0szbcd0s3QsTV0i9P-22" value="adress" style="ellipse;whiteSpace=wrap;html=1;aspect=fixed;" parent="1" vertex="1">
          <mxGeometry x="76.5" y="690" width="60" height="60" as="geometry" />
        </mxCell>
        <mxCell id="JBl0szbcd0s3QsTV0i9P-31" style="rounded=0;orthogonalLoop=1;jettySize=auto;html=1;entryX=0;entryY=0.5;entryDx=0;entryDy=0;endArrow=none;endFill=0;" parent="1" source="JBl0szbcd0s3QsTV0i9P-17" target="JBl0szbcd0s3QsTV0i9P-2" edge="1">
          <mxGeometry relative="1" as="geometry" />
        </mxCell>
        <mxCell id="JBl0szbcd0s3QsTV0i9P-40" style="edgeStyle=orthogonalEdgeStyle;rounded=0;orthogonalLoop=1;jettySize=auto;html=1;entryX=0;entryY=0.5;entryDx=0;entryDy=0;endArrow=none;endFill=0;" parent="1" source="JBl0szbcd0s3QsTV0i9P-38" target="JBl0szbcd0s3QsTV0i9P-7" edge="1">
          <mxGeometry relative="1" as="geometry" />
        </mxCell>
        <mxCell id="JBl0szbcd0s3QsTV0i9P-38" value="Meminjam" style="rhombus;whiteSpace=wrap;html=1;" parent="1" vertex="1">
          <mxGeometry y="390" width="80" height="80" as="geometry" />
        </mxCell>
        <mxCell id="JBl0szbcd0s3QsTV0i9P-43" style="edgeStyle=orthogonalEdgeStyle;rounded=0;orthogonalLoop=1;jettySize=auto;html=1;entryX=1;entryY=0.5;entryDx=0;entryDy=0;endArrow=none;endFill=0;" parent="1" source="JBl0szbcd0s3QsTV0i9P-41" target="JBl0szbcd0s3QsTV0i9P-7" edge="1">
          <mxGeometry relative="1" as="geometry" />
        </mxCell>
        <mxCell id="JBl0szbcd0s3QsTV0i9P-41" value="Dipinjam" style="rhombus;whiteSpace=wrap;html=1;" parent="1" vertex="1">
          <mxGeometry x="810" y="390" width="80" height="80" as="geometry" />
        </mxCell>
        <mxCell id="JBl0szbcd0s3QsTV0i9P-46" style="edgeStyle=orthogonalEdgeStyle;rounded=0;orthogonalLoop=1;jettySize=auto;html=1;entryX=0.5;entryY=0;entryDx=0;entryDy=0;endArrow=none;endFill=0;" parent="1" source="JBl0szbcd0s3QsTV0i9P-44" target="JBl0szbcd0s3QsTV0i9P-2" edge="1">
          <mxGeometry relative="1" as="geometry" />
        </mxCell>
        <mxCell id="JBl0szbcd0s3QsTV0i9P-60" style="edgeStyle=orthogonalEdgeStyle;rounded=0;orthogonalLoop=1;jettySize=auto;html=1;endArrow=none;endFill=0;" parent="1" source="JBl0szbcd0s3QsTV0i9P-44" target="JBl0szbcd0s3QsTV0i9P-5" edge="1">
          <mxGeometry relative="1" as="geometry">
            <Array as="points">
              <mxPoint x="510" y="610" />
              <mxPoint x="510" y="610" />
            </Array>
          </mxGeometry>
        </mxCell>
        <mxCell id="JBl0szbcd0s3QsTV0i9P-44" value="Dilayani" style="rhombus;whiteSpace=wrap;html=1;" parent="1" vertex="1">
          <mxGeometry x="470" y="497" width="80" height="80" as="geometry" />
        </mxCell>
        <mxCell id="JBl0szbcd0s3QsTV0i9P-84" style="rounded=0;orthogonalLoop=1;jettySize=auto;html=1;endArrow=none;endFill=0;" parent="1" source="JBl0szbcd0s3QsTV0i9P-47" edge="1">
          <mxGeometry relative="1" as="geometry">
            <mxPoint x="910" y="20" as="targetPoint" />
          </mxGeometry>
        </mxCell>
        <mxCell id="JBl0szbcd0s3QsTV0i9P-47" value="title" style="ellipse;whiteSpace=wrap;html=1;aspect=fixed;" parent="1" vertex="1">
          <mxGeometry x="1000" y="93.75" width="60" height="60" as="geometry" />
        </mxCell>
        <mxCell id="JBl0szbcd0s3QsTV0i9P-85" style="rounded=0;orthogonalLoop=1;jettySize=auto;html=1;endArrow=none;endFill=0;entryX=0.5;entryY=0;entryDx=0;entryDy=0;" parent="1" source="JBl0szbcd0s3QsTV0i9P-48" target="JBl0szbcd0s3QsTV0i9P-3" edge="1">
          <mxGeometry relative="1" as="geometry" />
        </mxCell>
        <mxCell id="JBl0szbcd0s3QsTV0i9P-48" value="author" style="ellipse;whiteSpace=wrap;html=1;aspect=fixed;" parent="1" vertex="1">
          <mxGeometry x="730" y="-150" width="60" height="60" as="geometry" />
        </mxCell>
        <mxCell id="JBl0szbcd0s3QsTV0i9P-86" style="rounded=0;orthogonalLoop=1;jettySize=auto;html=1;entryX=0.5;entryY=0;entryDx=0;entryDy=0;endArrow=none;endFill=0;" parent="1" source="JBl0szbcd0s3QsTV0i9P-49" target="JBl0szbcd0s3QsTV0i9P-3" edge="1">
          <mxGeometry relative="1" as="geometry" />
        </mxCell>
        <mxCell id="JBl0szbcd0s3QsTV0i9P-49" value="publisher" style="ellipse;whiteSpace=wrap;html=1;aspect=fixed;" parent="1" vertex="1">
          <mxGeometry x="800" y="-150" width="60" height="60" as="geometry" />
        </mxCell>
        <mxCell id="JBl0szbcd0s3QsTV0i9P-83" style="rounded=0;orthogonalLoop=1;jettySize=auto;html=1;endArrow=none;endFill=0;" parent="1" source="JBl0szbcd0s3QsTV0i9P-50" edge="1">
          <mxGeometry relative="1" as="geometry">
            <mxPoint x="910" y="20" as="targetPoint" />
          </mxGeometry>
        </mxCell>
        <mxCell id="JBl0szbcd0s3QsTV0i9P-50" value="id" style="ellipse;whiteSpace=wrap;html=1;aspect=fixed;" parent="1" vertex="1">
          <mxGeometry x="940" y="170" width="60" height="60" as="geometry" />
        </mxCell>
        <mxCell id="JBl0szbcd0s3QsTV0i9P-87" style="rounded=0;orthogonalLoop=1;jettySize=auto;html=1;entryX=0.5;entryY=0;entryDx=0;entryDy=0;endArrow=none;endFill=0;" parent="1" source="JBl0szbcd0s3QsTV0i9P-51" target="JBl0szbcd0s3QsTV0i9P-3" edge="1">
          <mxGeometry relative="1" as="geometry" />
        </mxCell>
        <mxCell id="JBl0szbcd0s3QsTV0i9P-51" value="publication_data" style="ellipse;whiteSpace=wrap;html=1;aspect=fixed;" parent="1" vertex="1">
          <mxGeometry x="867" y="-160" width="90" height="90" as="geometry" />
        </mxCell>
        <mxCell id="JBl0szbcd0s3QsTV0i9P-88" style="rounded=0;orthogonalLoop=1;jettySize=auto;html=1;entryX=1;entryY=0.5;entryDx=0;entryDy=0;endArrow=none;endFill=0;" parent="1" source="JBl0szbcd0s3QsTV0i9P-52" target="JBl0szbcd0s3QsTV0i9P-3" edge="1">
          <mxGeometry relative="1" as="geometry" />
        </mxCell>
        <mxCell id="JBl0szbcd0s3QsTV0i9P-52" value="stock" style="ellipse;whiteSpace=wrap;html=1;aspect=fixed;" parent="1" vertex="1">
          <mxGeometry x="940" y="-90" width="60" height="60" as="geometry" />
        </mxCell>
        <mxCell id="JBl0szbcd0s3QsTV0i9P-89" style="rounded=0;orthogonalLoop=1;jettySize=auto;html=1;entryX=1;entryY=0.5;entryDx=0;entryDy=0;endArrow=none;endFill=0;" parent="1" source="JBl0szbcd0s3QsTV0i9P-53" target="JBl0szbcd0s3QsTV0i9P-3" edge="1">
          <mxGeometry relative="1" as="geometry" />
        </mxCell>
        <mxCell id="JBl0szbcd0s3QsTV0i9P-53" value="read" style="ellipse;whiteSpace=wrap;html=1;aspect=fixed;" parent="1" vertex="1">
          <mxGeometry x="960" y="-26.25" width="60" height="60" as="geometry" />
        </mxCell>
        <mxCell id="JBl0szbcd0s3QsTV0i9P-57" style="rounded=0;orthogonalLoop=1;jettySize=auto;html=1;endArrow=none;endFill=0;entryX=0.5;entryY=0;entryDx=0;entryDy=0;" parent="1" source="JBl0szbcd0s3QsTV0i9P-54" target="JBl0szbcd0s3QsTV0i9P-7" edge="1">
          <mxGeometry relative="1" as="geometry" />
        </mxCell>
        <mxCell id="JBl0szbcd0s3QsTV0i9P-54" value="id" style="ellipse;whiteSpace=wrap;html=1;aspect=fixed;" parent="1" vertex="1">
          <mxGeometry x="390" y="310" width="60" height="60" as="geometry" />
        </mxCell>
        <mxCell id="JBl0szbcd0s3QsTV0i9P-58" style="rounded=0;orthogonalLoop=1;jettySize=auto;html=1;endArrow=none;endFill=0;" parent="1" source="JBl0szbcd0s3QsTV0i9P-55" edge="1">
          <mxGeometry relative="1" as="geometry">
            <mxPoint x="510" y="400" as="targetPoint" />
          </mxGeometry>
        </mxCell>
        <mxCell id="JBl0szbcd0s3QsTV0i9P-55" value="date_borrow" style="ellipse;whiteSpace=wrap;html=1;aspect=fixed;" parent="1" vertex="1">
          <mxGeometry x="474" y="297.5" width="72.5" height="72.5" as="geometry" />
        </mxCell>
        <mxCell id="JBl0szbcd0s3QsTV0i9P-59" style="rounded=0;orthogonalLoop=1;jettySize=auto;html=1;endArrow=none;endFill=0;" parent="1" source="JBl0szbcd0s3QsTV0i9P-56" edge="1">
          <mxGeometry relative="1" as="geometry">
            <mxPoint x="510" y="400" as="targetPoint" />
          </mxGeometry>
        </mxCell>
        <mxCell id="JBl0szbcd0s3QsTV0i9P-56" value="date_return" style="ellipse;whiteSpace=wrap;html=1;aspect=fixed;" parent="1" vertex="1">
          <mxGeometry x="570" y="303" width="67" height="67" as="geometry" />
        </mxCell>
        <mxCell id="JBl0szbcd0s3QsTV0i9P-67" style="rounded=0;orthogonalLoop=1;jettySize=auto;html=1;entryX=0.5;entryY=1;entryDx=0;entryDy=0;endArrow=none;endFill=0;" parent="1" source="JBl0szbcd0s3QsTV0i9P-61" target="JBl0szbcd0s3QsTV0i9P-5" edge="1">
          <mxGeometry relative="1" as="geometry" />
        </mxCell>
        <mxCell id="JBl0szbcd0s3QsTV0i9P-61" value="id" style="ellipse;whiteSpace=wrap;html=1;aspect=fixed;" parent="1" vertex="1">
          <mxGeometry x="459" y="857" width="60" height="60" as="geometry" />
        </mxCell>
        <mxCell id="JBl0szbcd0s3QsTV0i9P-68" style="rounded=0;orthogonalLoop=1;jettySize=auto;html=1;entryX=0.5;entryY=1;entryDx=0;entryDy=0;endArrow=none;endFill=0;" parent="1" source="JBl0szbcd0s3QsTV0i9P-62" target="JBl0szbcd0s3QsTV0i9P-5" edge="1">
          <mxGeometry relative="1" as="geometry" />
        </mxCell>
        <mxCell id="JBl0szbcd0s3QsTV0i9P-62" value="id_penalty" style="ellipse;whiteSpace=wrap;html=1;aspect=fixed;" parent="1" vertex="1">
          <mxGeometry x="525.5" y="857" width="60" height="60" as="geometry" />
        </mxCell>
        <mxCell id="JBl0szbcd0s3QsTV0i9P-69" style="rounded=0;orthogonalLoop=1;jettySize=auto;html=1;entryX=0.5;entryY=1;entryDx=0;entryDy=0;endArrow=none;endFill=0;" parent="1" source="JBl0szbcd0s3QsTV0i9P-63" target="JBl0szbcd0s3QsTV0i9P-5" edge="1">
          <mxGeometry relative="1" as="geometry" />
        </mxCell>
        <mxCell id="JBl0szbcd0s3QsTV0i9P-63" value="id_librarian" style="ellipse;whiteSpace=wrap;html=1;aspect=fixed;" parent="1" vertex="1">
          <mxGeometry x="595" y="837" width="60" height="60" as="geometry" />
        </mxCell>
        <mxCell id="JBl0szbcd0s3QsTV0i9P-66" style="rounded=0;orthogonalLoop=1;jettySize=auto;html=1;entryX=0.5;entryY=1;entryDx=0;entryDy=0;endArrow=none;endFill=0;" parent="1" source="JBl0szbcd0s3QsTV0i9P-64" target="JBl0szbcd0s3QsTV0i9P-5" edge="1">
          <mxGeometry relative="1" as="geometry" />
        </mxCell>
        <mxCell id="JBl0szbcd0s3QsTV0i9P-64" value="id_anggota" style="ellipse;whiteSpace=wrap;html=1;aspect=fixed;" parent="1" vertex="1">
          <mxGeometry x="395" y="857" width="60" height="60" as="geometry" />
        </mxCell>
        <mxCell id="JBl0szbcd0s3QsTV0i9P-76" style="rounded=0;orthogonalLoop=1;jettySize=auto;html=1;endArrow=none;endFill=0;entryX=0.5;entryY=1;entryDx=0;entryDy=0;" parent="1" source="JBl0szbcd0s3QsTV0i9P-71" target="JBl0szbcd0s3QsTV0i9P-6" edge="1">
          <mxGeometry relative="1" as="geometry" />
        </mxCell>
        <mxCell id="JBl0szbcd0s3QsTV0i9P-71" value="id" style="ellipse;whiteSpace=wrap;html=1;aspect=fixed;" parent="1" vertex="1">
          <mxGeometry x="695" y="857" width="60" height="60" as="geometry" />
        </mxCell>
        <mxCell id="JBl0szbcd0s3QsTV0i9P-77" style="rounded=0;orthogonalLoop=1;jettySize=auto;html=1;endArrow=none;endFill=0;entryX=0.5;entryY=1;entryDx=0;entryDy=0;" parent="1" source="JBl0szbcd0s3QsTV0i9P-72" target="JBl0szbcd0s3QsTV0i9P-6" edge="1">
          <mxGeometry relative="1" as="geometry" />
        </mxCell>
        <mxCell id="JBl0szbcd0s3QsTV0i9P-72" value="nama" style="ellipse;whiteSpace=wrap;html=1;aspect=fixed;" parent="1" vertex="1">
          <mxGeometry x="765" y="877" width="60" height="60" as="geometry" />
        </mxCell>
        <mxCell id="JBl0szbcd0s3QsTV0i9P-78" style="rounded=0;orthogonalLoop=1;jettySize=auto;html=1;entryX=0.5;entryY=1;entryDx=0;entryDy=0;endArrow=none;endFill=0;" parent="1" source="JBl0szbcd0s3QsTV0i9P-73" target="JBl0szbcd0s3QsTV0i9P-6" edge="1">
          <mxGeometry relative="1" as="geometry" />
        </mxCell>
        <mxCell id="JBl0szbcd0s3QsTV0i9P-73" value="description" style="ellipse;whiteSpace=wrap;html=1;aspect=fixed;" parent="1" vertex="1">
          <mxGeometry x="835" y="877" width="60" height="60" as="geometry" />
        </mxCell>
        <mxCell id="JBl0szbcd0s3QsTV0i9P-79" style="rounded=0;orthogonalLoop=1;jettySize=auto;html=1;entryX=0.5;entryY=1;entryDx=0;entryDy=0;endArrow=none;endFill=0;" parent="1" target="JBl0szbcd0s3QsTV0i9P-6" edge="1">
          <mxGeometry relative="1" as="geometry">
            <mxPoint x="897.3552412268759" y="865.348076880749" as="sourcePoint" />
          </mxGeometry>
        </mxCell>
        <mxCell id="JBl0szbcd0s3QsTV0i9P-74" value="biaya" style="ellipse;whiteSpace=wrap;html=1;aspect=fixed;" parent="1" vertex="1">
          <mxGeometry x="895" y="837" width="60" height="60" as="geometry" />
        </mxCell>
        <mxCell id="JBl0szbcd0s3QsTV0i9P-92" style="rounded=0;orthogonalLoop=1;jettySize=auto;html=1;entryX=0.5;entryY=0;entryDx=0;entryDy=0;endArrow=none;endFill=0;" parent="1" source="JBl0szbcd0s3QsTV0i9P-81" target="JBl0szbcd0s3QsTV0i9P-4" edge="1">
          <mxGeometry relative="1" as="geometry" />
        </mxCell>
        <mxCell id="JBl0szbcd0s3QsTV0i9P-81" value="id" style="ellipse;whiteSpace=wrap;html=1;aspect=fixed;" parent="1" vertex="1">
          <mxGeometry x="365" y="-181.25" width="60" height="60" as="geometry" />
        </mxCell>
        <mxCell id="JBl0szbcd0s3QsTV0i9P-93" style="rounded=0;orthogonalLoop=1;jettySize=auto;html=1;entryX=0.5;entryY=0;entryDx=0;entryDy=0;endArrow=none;endFill=0;" parent="1" source="JBl0szbcd0s3QsTV0i9P-82" target="JBl0szbcd0s3QsTV0i9P-4" edge="1">
          <mxGeometry relative="1" as="geometry" />
        </mxCell>
        <mxCell id="JBl0szbcd0s3QsTV0i9P-82" value="nama" style="ellipse;whiteSpace=wrap;html=1;aspect=fixed;" parent="1" vertex="1">
          <mxGeometry x="445" y="-191.25" width="60" height="60" as="geometry" />
        </mxCell>
        <mxCell id="JBl0szbcd0s3QsTV0i9P-91" style="rounded=0;orthogonalLoop=1;jettySize=auto;html=1;endArrow=none;endFill=0;" parent="1" source="JBl0szbcd0s3QsTV0i9P-90" edge="1">
          <mxGeometry relative="1" as="geometry">
            <mxPoint x="910" y="20" as="targetPoint" />
          </mxGeometry>
        </mxCell>
        <mxCell id="JBl0szbcd0s3QsTV0i9P-90" value="id_category" style="ellipse;whiteSpace=wrap;html=1;aspect=fixed;" parent="1" vertex="1">
          <mxGeometry x="876" y="162" width="60" height="60" as="geometry" />
        </mxCell>
        <mxCell id="JBl0szbcd0s3QsTV0i9P-100" style="rounded=0;orthogonalLoop=1;jettySize=auto;html=1;entryX=0.5;entryY=1;entryDx=0;entryDy=0;endArrow=none;endFill=0;" parent="1" source="JBl0szbcd0s3QsTV0i9P-96" target="JBl0szbcd0s3QsTV0i9P-8" edge="1">
          <mxGeometry relative="1" as="geometry" />
        </mxCell>
        <mxCell id="JBl0szbcd0s3QsTV0i9P-96" value="id" style="ellipse;whiteSpace=wrap;html=1;aspect=fixed;" parent="1" vertex="1">
          <mxGeometry x="330" y="75" width="75" height="75" as="geometry" />
        </mxCell>
        <mxCell id="JBl0szbcd0s3QsTV0i9P-101" style="rounded=0;orthogonalLoop=1;jettySize=auto;html=1;entryX=0.5;entryY=1;entryDx=0;entryDy=0;endArrow=none;endFill=0;" parent="1" source="JBl0szbcd0s3QsTV0i9P-98" target="JBl0szbcd0s3QsTV0i9P-8" edge="1">
          <mxGeometry relative="1" as="geometry" />
        </mxCell>
        <mxCell id="JBl0szbcd0s3QsTV0i9P-98" value="id_anggota" style="ellipse;whiteSpace=wrap;html=1;aspect=fixed;" parent="1" vertex="1">
          <mxGeometry x="415" y="75" width="75" height="75" as="geometry" />
        </mxCell>
        <mxCell id="JBl0szbcd0s3QsTV0i9P-102" style="rounded=0;orthogonalLoop=1;jettySize=auto;html=1;entryX=0.5;entryY=1;entryDx=0;entryDy=0;endArrow=none;endFill=0;" parent="1" source="JBl0szbcd0s3QsTV0i9P-99" target="JBl0szbcd0s3QsTV0i9P-8" edge="1">
          <mxGeometry relative="1" as="geometry" />
        </mxCell>
        <mxCell id="JBl0szbcd0s3QsTV0i9P-99" value="id_book" style="ellipse;whiteSpace=wrap;html=1;aspect=fixed;" parent="1" vertex="1">
          <mxGeometry x="505" y="75" width="75" height="75" as="geometry" />
        </mxCell>
        <mxCell id="JBl0szbcd0s3QsTV0i9P-104" style="rounded=0;orthogonalLoop=1;jettySize=auto;html=1;entryX=1;entryY=0.5;entryDx=0;entryDy=0;endArrow=none;endFill=0;" parent="1" source="JBl0szbcd0s3QsTV0i9P-103" target="JBl0szbcd0s3QsTV0i9P-3" edge="1">
          <mxGeometry relative="1" as="geometry" />
        </mxCell>
        <mxCell id="JBl0szbcd0s3QsTV0i9P-103" value="sumarry" style="ellipse;whiteSpace=wrap;html=1;aspect=fixed;" parent="1" vertex="1">
          <mxGeometry x="1002" y="160" width="60" height="60" as="geometry" />
        </mxCell>
        <mxCell id="JBl0szbcd0s3QsTV0i9P-108" style="rounded=0;orthogonalLoop=1;jettySize=auto;html=1;endArrow=none;endFill=0;" parent="1" source="JBl0szbcd0s3QsTV0i9P-107" edge="1">
          <mxGeometry relative="1" as="geometry">
            <mxPoint x="910" y="20" as="targetPoint" />
          </mxGeometry>
        </mxCell>
        <mxCell id="JBl0szbcd0s3QsTV0i9P-107" value="wishlist" style="ellipse;whiteSpace=wrap;html=1;aspect=fixed;" parent="1" vertex="1">
          <mxGeometry x="990" y="33.75" width="60" height="60" as="geometry" />
        </mxCell>
        <mxCell id="6AdnA7VMkp3raatEs4pX-3" value="1" style="text;html=1;align=center;verticalAlign=middle;resizable=0;points=[];autosize=1;strokeColor=none;fillColor=none;fontStyle=1" parent="1" vertex="1">
          <mxGeometry x="37" y="361" width="30" height="30" as="geometry" />
        </mxCell>
        <mxCell id="6AdnA7VMkp3raatEs4pX-7" value="M" style="text;html=1;align=center;verticalAlign=middle;resizable=0;points=[];autosize=1;strokeColor=none;fillColor=none;fontStyle=1" parent="1" vertex="1">
          <mxGeometry x="817" y="51" width="30" height="30" as="geometry" />
        </mxCell>
        <mxCell id="6AdnA7VMkp3raatEs4pX-8" value="1" style="text;html=1;align=center;verticalAlign=middle;resizable=0;points=[];autosize=1;strokeColor=none;fillColor=none;fontStyle=1" parent="1" vertex="1">
          <mxGeometry x="580" y="400" width="30" height="30" as="geometry" />
        </mxCell>
        <mxCell id="6AdnA7VMkp3raatEs4pX-9" value="M" style="text;html=1;align=center;verticalAlign=middle;resizable=0;points=[];autosize=1;strokeColor=none;fillColor=none;fontStyle=1" parent="1" vertex="1">
          <mxGeometry x="365" y="-8" width="30" height="30" as="geometry" />
        </mxCell>
        <mxCell id="6AdnA7VMkp3raatEs4pX-14" value="" style="edgeStyle=entityRelationEdgeStyle;fontSize=12;html=1;endArrow=ERoneToMany;rounded=0;exitX=0;exitY=0.25;exitDx=0;exitDy=0;" parent="1" source="JBl0szbcd0s3QsTV0i9P-3" target="JBl0szbcd0s3QsTV0i9P-4" edge="1">
          <mxGeometry width="100" height="100" relative="1" as="geometry">
            <mxPoint x="789.7600000000002" y="-1.5599999999999454" as="sourcePoint" />
            <mxPoint x="660" y="-120" as="targetPoint" />
          </mxGeometry>
        </mxCell>
        <mxCell id="6AdnA7VMkp3raatEs4pX-15" value="" style="edgeStyle=entityRelationEdgeStyle;fontSize=12;html=1;endArrow=ERoneToMany;rounded=0;exitX=1;exitY=0.5;exitDx=0;exitDy=0;entryX=0;entryY=0.5;entryDx=0;entryDy=0;" parent="1" source="JBl0szbcd0s3QsTV0i9P-1" target="JBl0szbcd0s3QsTV0i9P-8" edge="1">
          <mxGeometry width="100" height="100" relative="1" as="geometry">
            <mxPoint x="140" y="140" as="sourcePoint" />
            <mxPoint x="240" y="40" as="targetPoint" />
          </mxGeometry>
        </mxCell>
        <mxCell id="6AdnA7VMkp3raatEs4pX-16" value="1" style="text;html=1;align=center;verticalAlign=middle;resizable=0;points=[];autosize=1;strokeColor=none;fillColor=none;fontStyle=1" parent="1" vertex="1">
          <mxGeometry x="106.5" y="150" width="30" height="30" as="geometry" />
        </mxCell>
        <mxCell id="6AdnA7VMkp3raatEs4pX-18" value="M" style="text;html=1;align=center;verticalAlign=middle;resizable=0;points=[];autosize=1;strokeColor=none;fillColor=none;fontStyle=1" parent="1" vertex="1">
          <mxGeometry x="534" y="-91.25" width="30" height="30" as="geometry" />
        </mxCell>
        <mxCell id="6AdnA7VMkp3raatEs4pX-19" value="" style="edgeStyle=orthogonalEdgeStyle;fontSize=12;html=1;endArrow=ERoneToMany;rounded=0;exitX=0;exitY=0.5;exitDx=0;exitDy=0;entryX=0;entryY=0.5;entryDx=0;entryDy=0;" parent="1" source="6AdnA7VMkp3raatEs4pX-23" target="JBl0szbcd0s3QsTV0i9P-5" edge="1">
          <mxGeometry width="100" height="100" relative="1" as="geometry">
            <mxPoint x="-20" y="177" as="sourcePoint" />
            <mxPoint x="190" y="560" as="targetPoint" />
            <Array as="points">
              <mxPoint x="-130" y="800" />
            </Array>
          </mxGeometry>
        </mxCell>
        <mxCell id="6AdnA7VMkp3raatEs4pX-20" value="1" style="text;html=1;align=center;verticalAlign=middle;resizable=0;points=[];autosize=1;strokeColor=none;fillColor=none;fontStyle=1" parent="1" vertex="1">
          <mxGeometry x="-133" y="733" width="30" height="30" as="geometry" />
        </mxCell>
        <mxCell id="6AdnA7VMkp3raatEs4pX-21" value="M" style="text;html=1;align=center;verticalAlign=middle;resizable=0;points=[];autosize=1;strokeColor=none;fillColor=none;fontStyle=1" parent="1" vertex="1">
          <mxGeometry x="-90" y="772" width="30" height="30" as="geometry" />
        </mxCell>
        <mxCell id="6AdnA7VMkp3raatEs4pX-24" value="" style="edgeStyle=orthogonalEdgeStyle;fontSize=12;html=1;endArrow=ERoneToMany;rounded=0;exitX=0;exitY=0.5;exitDx=0;exitDy=0;entryX=0;entryY=0.5;entryDx=0;entryDy=0;" parent="1" target="6AdnA7VMkp3raatEs4pX-23" edge="1">
          <mxGeometry width="100" height="100" relative="1" as="geometry">
            <mxPoint x="-20" y="177" as="sourcePoint" />
            <mxPoint x="435" y="800" as="targetPoint" />
            <Array as="points">
              <mxPoint x="-130" y="177" />
            </Array>
          </mxGeometry>
        </mxCell>
        <mxCell id="6AdnA7VMkp3raatEs4pX-23" value="Bayar Denda" style="rhombus;whiteSpace=wrap;html=1;" parent="1" vertex="1">
          <mxGeometry x="-181" y="760" width="100" height="80" as="geometry" />
        </mxCell>
        <mxCell id="6AdnA7VMkp3raatEs4pX-25" value="1" style="text;html=1;align=center;verticalAlign=middle;resizable=0;points=[];autosize=1;strokeColor=none;fillColor=none;fontStyle=1" parent="1" vertex="1">
          <mxGeometry x="435" y="512" width="30" height="30" as="geometry" />
        </mxCell>
        <mxCell id="6AdnA7VMkp3raatEs4pX-26" value="M" style="text;html=1;align=center;verticalAlign=middle;resizable=0;points=[];autosize=1;strokeColor=none;fillColor=none;fontStyle=1" parent="1" vertex="1">
          <mxGeometry x="479" y="474" width="30" height="30" as="geometry" />
        </mxCell>
        <mxCell id="6AdnA7VMkp3raatEs4pX-27" value="M" style="text;html=1;align=center;verticalAlign=middle;resizable=0;points=[];autosize=1;strokeColor=none;fillColor=none;fontStyle=1" parent="1" vertex="1">
          <mxGeometry x="475" y="563" width="30" height="30" as="geometry" />
        </mxCell>
        <mxCell id="CQBFquy-F02BbyckZI3x-1" value="" style="edgeStyle=entityRelationEdgeStyle;fontSize=12;html=1;endArrow=ERoneToMany;rounded=0;exitX=1;exitY=0.5;exitDx=0;exitDy=0;entryX=1.054;entryY=0.768;entryDx=0;entryDy=0;entryPerimeter=0;" edge="1" parent="1" source="JBl0szbcd0s3QsTV0i9P-8">
          <mxGeometry width="100" height="100" relative="1" as="geometry">
            <mxPoint x="620" y="120" as="sourcePoint" />
            <mxPoint x="791.6200000000001" y="23.039999999999964" as="targetPoint" />
          </mxGeometry>
        </mxCell>
        <mxCell id="CQBFquy-F02BbyckZI3x-2" value="1" style="text;html=1;align=center;verticalAlign=middle;resizable=0;points=[];autosize=1;strokeColor=none;fillColor=none;fontStyle=1" vertex="1" parent="1">
          <mxGeometry x="521.5" y="22" width="30" height="30" as="geometry" />
        </mxCell>
        <mxCell id="CQBFquy-F02BbyckZI3x-3" value="M" style="text;html=1;align=center;verticalAlign=middle;resizable=0;points=[];autosize=1;strokeColor=none;fillColor=none;fontStyle=1" vertex="1" parent="1">
          <mxGeometry x="755" y="23" width="30" height="30" as="geometry" />
        </mxCell>
        <mxCell id="CQBFquy-F02BbyckZI3x-4" value="1" style="text;html=1;align=center;verticalAlign=middle;resizable=0;points=[];autosize=1;strokeColor=none;fillColor=none;fontStyle=1" vertex="1" parent="1">
          <mxGeometry x="755" y="-31.25" width="30" height="30" as="geometry" />
        </mxCell>
      </root>
    </mxGraphModel>
  </diagram>
</mxfile>
